<?xml version="1.0" standalone="no"?><!DOCTYPE svg PUBLIC "-//W3C//DTD SVG 1.1//EN" "http://www.w3.org/Graphics/SVG/1.1/DTD/svg11.dtd"><svg t="1719475842893" class="icon" viewBox="0 0 1024 1024" version="1.1" xmlns="http://www.w3.org/2000/svg" p-id="9256" xmlns:xlink="http://www.w3.org/1999/xlink" width="200" height="200"><path d="M448.004 432.004c-4.422 0-8-3.578-8-8V192.018H232.016v231.988c0 4.42-3.578 8-8 8s-8-3.578-8-8V184.018c0-4.422 3.578-8 8-8h223.988c4.422 0 8 3.578 8 8v239.988a7.996 7.996 0 0 1-8 7.998z" fill="" p-id="9257"></path><path d="M256.014 176.018c-4.422 0-8-3.578-8-8V8.028c0-4.422 3.578-8 8-8s8 3.578 8 8V168.02a7.994 7.994 0 0 1-8 7.998z" fill="" p-id="9258"></path><path d="M416.004 16.028h-159.992c-4.422 0-8-3.578-8-8s3.578-8 8-8h159.992c4.422 0 8 3.578 8 8s-3.578 8-8 8z" fill="" p-id="9259"></path><path d="M416.004 176.018c-4.42 0-8-3.578-8-8V8.028c0-4.422 3.578-8 8-8 4.422 0 8 3.578 8 8V168.02a7.994 7.994 0 0 1-8 7.998zM320.01 112.022h-31.998c-4.422 0-8-3.578-8-8v-32c0-4.42 3.578-8 8-8h31.998c4.422 0 8 3.578 8 8v32c0 4.422-3.578 8-8 8z m-23.998-15.998h16v-16h-16v16zM384.006 112.022h-31.998c-4.422 0-8-3.578-8-8v-32c0-4.42 3.578-8 8-8h31.998c4.422 0 8 3.578 8 8v32c0 4.422-3.578 8-8 8z m-23.998-15.998h16v-16h-16v16zM256.014 464.002c-22.054 0-39.998-17.936-39.998-39.998 0-4.422 3.578-8 8-8s8 3.578 8 8c0 13.232 10.764 23.998 23.998 23.998 4.422 0 8 3.578 8 8s-3.578 8-8 8zM416.004 464.002c-4.42 0-8-3.578-8-8s3.578-8 8-8c13.234 0 24-10.766 24-23.998 0-4.422 3.578-8 8-8s8 3.578 8 8c-0.002 22.062-17.946 39.998-40 39.998z" fill="" p-id="9260"></path><path d="M416.004 464.002h-159.992c-4.422 0-8-3.578-8-8s3.578-8 8-8h159.992c4.422 0 8 3.578 8 8s-3.578 8-8 8zM288.012 496.002c-4.422 0-8-3.578-8-8v-16c0-4.42 3.578-8 8-8s8 3.578 8 8v16c0 4.422-3.578 8-8 8zM384.006 496.002c-4.422 0-8-3.578-8-8v-16c0-4.42 3.578-8 8-8s8 3.578 8 8v16c0 4.422-3.578 8-8 8z" fill="" p-id="9261"></path><path d="M304.012 512c-13.234 0-24-10.764-24-23.998 0-4.422 3.578-8 8-8s8 3.578 8 8c0 4.406 3.586 8 8 8 4.42 0 8 3.578 8 8a7.998 7.998 0 0 1-8 7.998zM368.008 512c-4.422 0-8-3.578-8-8 0-4.422 3.578-8 8-8 4.414 0 8-3.594 8-8 0-4.422 3.578-8 8-8s8 3.578 8 8c-0.002 13.236-10.766 24-24 24z" fill="" p-id="9262"></path><path d="M368.008 512h-63.996c-4.422 0-8-3.578-8-8 0-4.422 3.578-8 8-8h63.996c4.422 0 8 3.578 8 8 0 4.422-3.578 8-8 8zM320.01 807.984c-4.422 0-8-3.578-8-8V520c0-4.422 3.578-8 8-8s8 3.578 8 8v279.984c0 4.422-3.578 8-8 8zM352.008 807.984c-4.422 0-8-3.578-8-8V520c0-4.422 3.578-8 8-8 4.42 0 8 3.578 8 8v279.984c0 4.422-3.578 8-8 8zM751.988 703.99c-4.422 0-8-3.578-8-8V456.004c0-4.422 3.578-8 8-8a7.994 7.994 0 0 1 7.998 8v239.986c0 4.422-3.578 8-7.998 8zM719.988 655.992c-4.422 0-8-3.578-8-8v-191.988c0-4.422 3.578-8 8-8s8 3.578 8 8v191.988c0 4.422-3.578 8-8 8zM336.01 413.35c-4.422 0-8-3.578-8-8v-173.334c0-4.422 3.578-8 8-8s8 3.578 8 8v173.334a7.996 7.996 0 0 1-8 8zM376.008 336.01c-4.422 0-8-3.578-8-8v-47.998c0-4.42 3.578-8 8-8 4.42 0 8 3.578 8 8v47.998a7.998 7.998 0 0 1-8 8z" fill="" p-id="9263"></path><path d="M352.016 352.01a7.996 7.996 0 0 1-4.446-14.656l24-16a7.974 7.974 0 0 1 11.092 2.218 7.994 7.994 0 0 1-2.218 11.092l-24 16a7.974 7.974 0 0 1-4.428 1.346zM296.012 368.008c-4.422 0-8-3.578-8-8v-47.998c0-4.422 3.578-8 8-8s8 3.578 8 8v47.998c0 4.422-3.578 8-8 8z" fill="" p-id="9264"></path><path d="M320.002 384.008a8 8 0 0 1-4.43-1.344l-23.998-16a8 8 0 0 1 8.876-13.31l23.998 16a7.994 7.994 0 0 1-4.446 14.654zM320.01 256.014a8 8 0 0 1-5.656-13.656l16-16a8 8 0 1 1 11.312 11.312l-16 15.998a7.97 7.97 0 0 1-5.656 2.346z" fill="" p-id="9265"></path><path d="M352.008 256.014a7.976 7.976 0 0 1-5.656-2.344l-16-15.998a8 8 0 1 1 11.312-11.312l15.998 16a8 8 0 0 1-5.654 13.654z" fill="" p-id="9266"></path><path d="M719.988 432.004c-13.232 0-23.998-10.764-23.998-24 0-4.422 3.578-8 8-8s7.998 3.578 7.998 8c0 4.406 3.594 8 8 8 4.422 0 8 3.578 8 8 0 4.422-3.578 8-8 8zM751.988 432.004c-4.422 0-8-3.578-8-8 0-4.422 3.578-8 8-8a8.016 8.016 0 0 0 7.998-8c0-4.422 3.578-8 8-8s8 3.578 8 8c0 13.236-10.766 24-23.998 24z" fill="" p-id="9267"></path><path d="M751.988 432.004h-32c-4.422 0-8-3.578-8-8 0-4.422 3.578-8 8-8h32a7.994 7.994 0 0 1 7.998 8c0 4.422-3.578 8-7.998 8zM799.984 400.006h-127.992c-4.422 0-8-3.578-8-8 0-4.42 3.578-8 8-8h127.992c4.422 0 8 3.578 8 8 0 4.422-3.578 8-8 8z" fill="" p-id="9268"></path><path d="M799.984 400.006c-4.422 0-8-3.578-8-8V184.018c0-4.422 3.578-8 8-8s8 3.578 8 8v207.99a7.994 7.994 0 0 1-8 7.998zM671.992 400.006c-4.422 0-8-3.578-8-8V184.018c0-4.422 3.578-8 8-8s8 3.578 8 8v207.99a7.994 7.994 0 0 1-8 7.998z" fill="" p-id="9269"></path><path d="M799.984 192.018h-127.992c-4.422 0-8-3.578-8-8s3.578-8 8-8h127.992c4.422 0 8 3.578 8 8s-3.578 8-8 8z" fill="" p-id="9270"></path><path d="M687.99 176.018a7.994 7.994 0 0 1-7.998-8V88.024c0-4.422 3.576-8 7.998-8s8 3.578 8 8V168.02a7.994 7.994 0 0 1-8 7.998z" fill="" p-id="9271"></path><path d="M783.984 96.024h-95.994c-4.422 0-7.998-3.578-7.998-8s3.576-8 7.998-8h95.994c4.422 0 8 3.578 8 8s-3.578 8-8 8z" fill="" p-id="9272"></path><path d="M783.984 176.018a7.994 7.994 0 0 1-7.998-8V88.024c0-4.422 3.578-8 7.998-8 4.422 0 8 3.578 8 8V168.02a7.994 7.994 0 0 1-8 7.998zM719.988 160.02c-4.422 0-8-3.578-8-8V120.022c0-4.422 3.578-8 8-8s8 3.578 8 8V152.02c0 4.422-3.578 8-8 8zM751.988 160.02c-4.422 0-8-3.578-8-8V120.022c0-4.422 3.578-8 8-8a7.994 7.994 0 0 1 7.998 8V152.02c0 4.422-3.578 8-7.998 8z" fill="" p-id="9273"></path><path d="M535.998 1023.972c-123.508 0-223.988-100.478-223.988-223.988 0-4.422 3.578-8 8-8s8 3.578 8 8c0 114.682 93.3 207.99 207.988 207.99 114.682 0 207.99-93.308 207.99-207.99 0-114.68-93.308-207.988-207.99-207.988-55.176 0-107.158 21.39-146.368 60.214a8.006 8.006 0 0 1-11.264-11.372c42.232-41.81 98.212-64.842 157.63-64.842 123.51 0 223.988 100.48 223.988 223.988 0.002 123.51-100.476 223.988-223.986 223.988z" fill="" p-id="9274"></path><path d="M535.998 991.974c-105.862 0-191.99-86.12-191.99-191.99 0-4.422 3.578-8 8-8 4.42 0 8 3.578 8 8 0 97.042 78.95 175.992 175.99 175.992 97.042 0 175.99-78.95 175.99-175.992 0-97.042-78.948-175.99-175.99-175.99-58.042 0-112.33 28.608-145.234 76.528a194.634 194.634 0 0 0-4.71 7.25c-2.336 3.782-7.256 4.954-11.006 2.624a7.994 7.994 0 0 1-2.618-11 193.348 193.348 0 0 1 5.132-7.906c35.896-52.292 95.12-83.494 158.436-83.494 105.87 0 191.99 86.12 191.99 191.988 0 105.872-86.12 191.99-191.99 191.99z" fill="" p-id="9275"></path><path d="M767.986 272.014h-63.996c-4.422 0-8-3.578-8-8s3.578-8 8-8h63.996c4.422 0 8 3.578 8 8s-3.578 8-8 8z" fill="" p-id="9276"></path><path d="M767.986 304.012h-63.996c-4.422 0-8-3.578-8-8s3.578-8 8-8h63.996c4.422 0 8 3.578 8 8s-3.578 8-8 8z" fill="" p-id="9277"></path></svg>